<svg width="100" height="100" viewBox="0 0 100 100" fill="none" xmlns="http://www.w3.org/2000/svg">
<path d="M95 20.105C95.015 19.375 94.965 12.78 88.5 6.43C82.135 0.18 75.715 0 75 0H24.98C23.785 0 17.515 0.315 11.44 6.51C5.18 12.89 5 19.295 5 20V35H0V50H5V80C5 83.67 7.03 86.865 10 88.605V95C10 96.3261 10.5268 97.5979 11.4645 98.5355C12.4021 99.4732 13.6739 100 15 100H20C21.3261 100 22.5979 99.4732 23.5355 98.5355C24.4732 97.5979 25 96.3261 25 95V90H75V95C75 96.3261 75.5268 97.5979 76.4645 98.5355C77.4021 99.4732 78.6739 100 80 100H85C86.3261 100 87.5979 99.4732 88.5355 98.5355C89.4732 97.5979 90 96.3261 90 95V88.615C91.517 87.745 92.7778 86.4907 93.6556 84.9782C94.5334 83.4658 94.9971 81.7487 95 80V50H100V35H95V20.105ZM35 10H65V20H35V10ZM22.5 80C20.5102 79.9993 18.6022 79.2083 17.1957 77.8008C15.7891 76.3933 14.9993 74.4848 15 72.495C15.0007 70.5052 15.7917 68.5972 17.1992 67.1907C18.6067 65.7841 20.5152 64.9943 22.505 64.995C24.4948 64.9957 26.4028 65.7867 27.8093 67.1942C29.2159 68.6017 30.0057 70.5102 30.005 72.5C30.0043 74.4898 29.2133 76.3978 27.8058 77.8043C26.3983 79.2109 24.4898 80.0007 22.5 80ZM45 55H15V30H45V55ZM77.5 80C75.5102 79.9993 73.6022 79.2083 72.1957 77.8008C70.7891 76.3933 69.9993 74.4848 70 72.495C70.0007 70.5052 70.7917 68.5972 72.1992 67.1907C73.6067 65.7841 75.5152 64.9943 77.505 64.995C79.4948 64.9957 81.4028 65.7867 82.8093 67.1942C84.2159 68.6017 85.0057 70.5102 85.005 72.5C85.0043 74.4898 84.2133 76.3978 82.8058 77.8043C81.3983 79.2109 79.4898 80.0007 77.5 80ZM85 55H55V30H85V55Z" fill="#4865EF"/>
</svg>
